<?xml version="1.0" encoding="UTF-8"?><svg id="Layer_2" xmlns="http://www.w3.org/2000/svg" viewBox="0 0 80 100"><defs><style>.cls-1{fill:#e30427;}.cls-2{fill:#6b6a6a;}</style></defs><g id="Layer_1-2"><g><path class="cls-1" d="m9,0C4.03,0,0,4.03,0,9h0c0,3.81,2.41,7.19,6,8.46v22.54c0,1.66,1.34,3,3,3,.31,0,.62-.05.92-.15l22.95-7.4c1.7,2.23,4.33,3.54,7.13,3.55,4.97,0,9-4.03,9-9h0c0-4.97-4.03-9-9-9-4.87,0-8.84,3.88-8.98,8.74l-19.02,6.13v-18.42c3.59-1.27,5.99-4.66,6-8.46C18,4.03,13.97,0,9,0h0s0,0,0,0Z"/><path class="cls-1" d="m71,100c4.97,0,9-4.03,9-9h0c0-3.81-2.41-7.19-6-8.46v-22.54c0-1.66-1.34-3-3-3-.31,0-.62.05-.92.15l-22.95,7.4c-1.7-2.23-4.33-3.54-7.13-3.55-4.97,0-9,4.03-9,9h0c0,4.97,4.03,9,9,9h0c4.87,0,8.84-3.88,8.98-8.74l19.02-6.13v18.42c-3.59,1.27-5.99,4.66-6,8.46,0,4.97,4.03,9,9,9h0Z"/><path class="cls-2" d="m71,0c-4.97,0-9,4.03-9,9h0c0,3.81,2.41,7.21,6,8.48v20.34L8.08,57.14c-1.24.4-2.08,1.56-2.07,2.86v22.52C2.41,83.79,0,87.19,0,91c0,4.97,4.03,9,9,9h0c4.97,0,9-4.03,9-9h0c0-3.81-2.4-7.21-6-8.48v-20.33l59.92-19.33c1.24-.4,2.08-1.55,2.08-2.85v-22.52c3.59-1.27,5.99-4.67,6-8.48C80,4.03,75.97,0,71,0h0s0,0,0,0Z"/></g></g></svg>