<?xml version="1.0" encoding="UTF-8"?><svg id="Layer_2" xmlns="http://www.w3.org/2000/svg" viewBox="0 0 120 81.36"><defs><style>.cls-1{fill:#e30427;}.cls-2{fill:#6b6a6a;}</style></defs><g id="Layer_1-2"><g><g><path class="cls-1" d="m41.4,0c-2.98,0-5.4,2.42-5.4,5.4h0c0,2.28,1.45,4.32,3.6,5.08v13.52c0,.99.81,1.8,1.8,1.8.19,0,.37-.03.55-.09l13.77-4.44c1.02,1.34,2.6,2.12,4.28,2.13,2.98,0,5.4-2.42,5.4-5.4h0c0-2.98-2.42-5.4-5.4-5.4-2.92,0-5.31,2.33-5.39,5.25l-11.41,3.68v-11.05c2.15-.76,3.59-2.79,3.6-5.08C46.8,2.42,44.38,0,41.4,0h0s0,0,0,0Z"/><path class="cls-1" d="m78.6,60c2.98,0,5.4-2.42,5.4-5.4h0c0-2.28-1.45-4.32-3.6-5.08v-13.52c0-.99-.81-1.8-1.8-1.8-.19,0-.37.03-.55.09l-13.77,4.44c-1.02-1.34-2.6-2.12-4.28-2.13-2.98,0-5.4,2.42-5.4,5.4h0c0,2.98,2.42,5.4,5.4,5.4h0c2.92,0,5.31-2.33,5.39-5.25l11.41-3.68v11.05c-2.15.76-3.59,2.79-3.6,5.08,0,2.98,2.42,5.4,5.4,5.4h0Z"/><path class="cls-2" d="m78.6,0c-2.98,0-5.4,2.42-5.4,5.4h0c0,2.29,1.44,4.33,3.6,5.09v12.2l-35.95,11.59c-.74.24-1.25.93-1.24,1.71v13.51c-2.16.76-3.6,2.8-3.6,5.09,0,2.98,2.42,5.4,5.4,5.4h0c2.98,0,5.4-2.42,5.4-5.4h0c0-2.29-1.44-4.33-3.6-5.09v-12.2l35.95-11.6c.74-.24,1.25-.93,1.25-1.71v-13.52c2.15-.76,3.6-2.8,3.6-5.09C84,2.42,81.58,0,78.6,0h0s0,0,0,0Z"/></g><g><path class="cls-1" d="m.3,80.92c-.2-.18-.3-.41-.3-.69v-8.87c0-.29.1-.53.3-.7.2-.18.47-.27.81-.27.27,0,.5.09.68.27s.27.41.27.69v3.4h5.09v-3.4c0-.27.1-.5.31-.69.21-.19.46-.28.75-.28.27,0,.5.09.69.27s.28.41.28.69v8.87c0,.27-.09.5-.28.69-.19.19-.42.28-.69.28s-.53-.09-.74-.28c-.21-.19-.32-.42-.32-.69v-3.42H2.06v3.42c0,.27-.09.5-.27.69-.18.19-.41.28-.68.28-.34,0-.61-.09-.81-.27Z"/><path class="cls-1" d="m14.16,81.23c-.17,0-.29-.01-.37-.03-.19-.1-.34-.24-.45-.41s-.17-.36-.17-.57c0-.18.04-.35.12-.52l4.48-8.76c.1-.21.24-.37.42-.48.18-.11.36-.16.56-.16s.38.05.55.16c.17.11.3.27.4.48l4.4,8.76c.08.16.12.32.12.5,0,.29-.11.54-.34.73-.22.2-.48.3-.76.3-.18,0-.34-.05-.48-.14-.15-.09-.27-.23-.36-.42l-.69-1.37h-5.76l-.67,1.37c-.18.38-.52.56-1.02.56Zm4.58-7.86l-1.92,3.86h3.69l-1.76-3.86Z"/><path class="cls-1" d="m29.95,80.95c-.21.19-.46.28-.74.28s-.52-.09-.72-.27c-.2-.18-.3-.43-.3-.75v-8.87c0-.27.09-.5.27-.68.18-.18.4-.27.66-.27h4.15c.73,0,1.36.17,1.9.5.54.33.94.77,1.22,1.31.28.54.41,1.11.41,1.72,0,.68-.17,1.3-.52,1.86-.35.56-.86.98-1.54,1.25l2.08,2.53c.15.22.22.44.22.67,0,.28-.1.52-.3.71-.2.19-.45.29-.73.29-.36,0-.68-.17-.94-.5l-2.36-3.37h-2.45v2.83c0,.32-.11.58-.32.77Zm3.33-5.39c.49,0,.87-.17,1.16-.5.28-.33.42-.72.42-1.17s-.14-.81-.41-1.13c-.28-.32-.66-.48-1.16-.48h-3.01v3.28h3.01Z"/><path class="cls-1" d="m41.72,80.96c-.21-.16-.32-.4-.32-.73v-8.87c0-.27.11-.5.34-.69.22-.19.47-.28.74-.28h3.58c1.13,0,2.1.26,2.9.77.8.51,1.4,1.18,1.8,2,.4.82.6,1.7.6,2.64s-.2,1.82-.59,2.64c-.4.82-.98,1.49-1.77,2s-1.72.77-2.81.77h-3.72c-.29,0-.54-.08-.76-.24Zm1.74-1.66h2.59c.68,0,1.26-.17,1.75-.51s.86-.78,1.11-1.32c.25-.54.37-1.12.37-1.73s-.12-1.15-.37-1.68-.61-.95-1.1-1.27c-.49-.32-1.08-.48-1.77-.48h-2.59v7Z"/><path class="cls-1" d="m66.76,77.46l2.33-6.43c.09-.23.22-.4.39-.52s.35-.18.56-.18c.27,0,.51.09.71.27.2.18.3.41.3.69,0,.12-.03.27-.08.42l-3.09,8.39c-.14.44-.28.74-.44.91-.16.17-.37.25-.64.25-.25,0-.44-.07-.57-.2s-.29-.37-.48-.71l-2.72-6.17-2.59,6.08c-.16.35-.32.61-.48.78-.16.17-.37.25-.63.25s-.47-.09-.63-.26c-.16-.17-.31-.44-.45-.8l-3.03-8.51c-.05-.16-.08-.29-.08-.41,0-.3.1-.54.31-.72s.45-.27.73-.27c.21,0,.4.06.58.18s.3.29.38.52l2.31,6.43,2.76-6.43c.09-.23.22-.41.38-.54.16-.13.33-.2.51-.2s.34.06.5.17c.16.11.28.29.38.52l2.76,6.48Z"/><path class="cls-1" d="m74.54,81.23c-.17,0-.29-.01-.37-.03-.19-.1-.34-.24-.45-.41s-.17-.36-.17-.57c0-.18.04-.35.12-.52l4.48-8.76c.1-.21.24-.37.42-.48.18-.11.36-.16.56-.16s.38.05.55.16c.17.11.3.27.4.48l4.4,8.76c.08.16.12.32.12.5,0,.29-.11.54-.34.73-.22.2-.48.3-.76.3-.18,0-.34-.05-.48-.14-.15-.09-.27-.23-.36-.42l-.69-1.37h-5.76l-.67,1.37c-.18.38-.52.56-1.02.56Zm4.58-7.86l-1.92,3.86h3.69l-1.76-3.86Z"/><path class="cls-1" d="m90.32,80.95c-.21.19-.46.28-.74.28s-.52-.09-.72-.27c-.2-.18-.3-.43-.3-.75v-8.87c0-.27.09-.5.27-.68.18-.18.4-.27.66-.27h4.15c.73,0,1.36.17,1.9.5.54.33.94.77,1.22,1.31.28.54.41,1.11.41,1.72,0,.68-.17,1.3-.52,1.86s-.86.98-1.54,1.25l2.08,2.53c.15.22.22.44.22.67,0,.28-.1.52-.3.71-.2.19-.45.29-.73.29-.36,0-.68-.17-.94-.5l-2.36-3.37h-2.45v2.83c0,.32-.11.58-.32.77Zm3.33-5.39c.49,0,.87-.17,1.16-.5.28-.33.42-.72.42-1.17s-.14-.81-.41-1.13c-.28-.32-.66-.48-1.16-.48h-3.01v3.28h3.01Z"/><path class="cls-1" d="m101.88,71.33c0-.3.1-.54.31-.72s.45-.27.73-.27.52.09.72.26c.2.17.3.41.3.73v8.92c0,.31-.1.55-.3.73-.2.17-.45.26-.74.26-.27,0-.51-.09-.71-.26-.2-.17-.3-.41-.3-.73v-8.92Z"/><path class="cls-1" d="m119.2,78.77c-.54.85-1.23,1.49-2.08,1.93-.85.44-1.75.66-2.7.66-1,.04-1.95-.15-2.85-.57-.9-.42-1.63-1.06-2.19-1.93-.56-.86-.84-1.91-.84-3.12s.28-2.26.84-3.12,1.29-1.51,2.19-1.95c.9-.44,1.85-.66,2.85-.66.96.05,1.86.3,2.72.75.85.45,1.55,1.1,2.08,1.94.53.85.8,1.86.8,3.04s-.27,2.19-.8,3.04Zm-1.78-5.05c-.36-.56-.82-.98-1.39-1.27-.57-.28-1.16-.42-1.79-.42s-1.19.14-1.75.42c-.56.28-1.02.7-1.37,1.27s-.53,1.23-.53,2.01.18,1.45.53,2.01.81.98,1.37,1.27c.56.29,1.15.43,1.75.43s1.22-.14,1.79-.43c.57-.29,1.03-.71,1.39-1.27.36-.56.54-1.23.54-2.01s-.18-1.45-.54-2.01Z"/></g></g></g></svg>